<svg width="254" height="293" viewBox="0 0 254 293" fill="none" xmlns="http://www.w3.org/2000/svg">
<path d="M108.501 262.4C109.601 268.2 111.601 272.3 113.901 275.4C114.101 275.7 114.301 275.9 114.501 276.2C115.001 276.8 115.501 277.3 116.001 277.8C116.301 278.1 116.501 278.3 116.801 278.5C119.501 280.9 122.401 282.3 124.901 283.4C131.201 286.1 131.501 293 131.501 293L82.1006 292.7C82.7006 284.5 82.7006 269 82.7006 269C93.0006 265.9 97.9006 264.1 108.501 262.4Z" fill="#FF3E6C"/>
<path d="M113.9 275.4C114.1 275.7 114.3 275.9 114.5 276.2C112.5 277.1 110.5 278.1 108.5 279C107.9 279.3 107.4 278.4 108 278.2C110 277.2 112 276.3 113.9 275.4Z" fill="white"/>
<path d="M116.101 277.7C116.401 278 116.601 278.2 116.901 278.4C114.701 279.5 112.401 280.5 110.201 281.6C109.601 281.9 109.101 281 109.701 280.8C111.801 279.8 113.901 278.8 116.101 277.7Z" fill="white"/>
<path d="M113.401 155.2C119.501 207.9 114.6 272.7 114.6 272.7L78.8005 275C78.8005 275 82.4005 174.5 79.0005 156.8C75.6005 139.2 113.401 155.2 113.401 155.2Z" fill="#5F5FFF"/>
<path d="M39.9004 257.8C35.3004 261.5 32.6004 265.2 31.0004 268.7C30.9004 269 30.7004 269.3 30.6004 269.6C30.3004 270.3 30.1004 271 29.9004 271.7C29.8004 272 29.7004 272.4 29.6004 272.7C28.8004 276.2 28.9004 279.5 29.1004 282.2C29.6004 289 23.7004 292.5 23.7004 292.5L0.900391 248.7C7.80039 243.9 14.6004 239.6 19.9004 234.3C27.4004 241.9 33.5004 249.3 39.9004 257.8Z" fill="#FF3E6C"/>
<path d="M92.5008 134.6L60.9008 136.7C57.5008 156.2 56.1008 184.5 41.7008 209.4C35.2008 220.7 24.0008 229.7 12.3008 239.8C18.8008 248.7 29.2008 260.4 35.8008 269.3C37.9008 265.8 74.3008 246.9 85.4008 195.7C91.5008 167.6 92.5008 134.6 92.5008 134.6Z" fill="#5F5FFF"/>
<path d="M31.0009 268.7C30.9009 269 30.7009 269.3 30.6009 269.6C28.8009 268.3 27.1009 266.9 25.3009 265.6C24.8009 265.2 25.3009 264.3 25.8009 264.7C27.6009 266.1 29.3009 267.4 31.0009 268.7Z" fill="white"/>
<path d="M29.9003 271.7C29.8003 272 29.7003 272.4 29.6003 272.7C27.6003 271.2 25.6003 269.8 23.7003 268.3C23.2003 267.9 23.7003 267 24.2003 267.4C26.1003 268.9 28.0003 270.3 29.9003 271.7Z" fill="white"/>
<path d="M82.1007 210.2C82.0007 210.2 81.9007 210.2 81.8007 210.1C81.4007 210 81.2007 209.5 81.4007 209.1C88.5007 190.6 91.7007 167.3 91.7007 167L91.8007 166.4H92.4008C92.5008 166.4 98.0007 166.1 101.701 165.1C102.101 165 102.501 165.2 102.601 165.6C102.701 166 102.501 166.4 102.101 166.5C99.0007 167.3 94.7007 167.7 93.1007 167.8C92.6007 171.6 89.3007 192.7 82.8007 209.6C82.7007 210 82.4007 210.2 82.1007 210.2Z" fill="#030047"/>
<path d="M253.7 0H137.6V155.9H253.7V0Z" fill="#E4E4EF"/>
<path d="M209 17H161.6V46.8H209V17Z" fill="#F2F2F9"/>
<path d="M190.3 117L238.7 89.4C238.7 89.4 252.2 113.9 228.7 126.5C208.2 137.5 190.3 117 190.3 117Z" fill="#F2F2F9"/>
<path d="M216.4 93.5C220.045 93.5 223 90.5451 223 86.9C223 83.2549 220.045 80.3 216.4 80.3C212.755 80.3 209.8 83.2549 209.8 86.9C209.8 90.5451 212.755 93.5 216.4 93.5Z" fill="#F2F2F9"/>
<path d="M212.7 21.5C212.5 21.5 212.3 21.4 212.2 21.3L204.7 13.8C204.4 13.5 204.4 13 204.7 12.7C205 12.4 205.5 12.4 205.8 12.7L213.3 20.2C213.6 20.5 213.6 21 213.3 21.3C213.1 21.5 212.9 21.5 212.7 21.5Z" fill="white"/>
<path d="M205.299 21.5C205.099 21.5 204.899 21.4 204.799 21.3C204.499 21 204.499 20.5 204.799 20.2L212.299 12.7C212.599 12.4 213.099 12.4 213.399 12.7C213.699 13 213.699 13.5 213.399 13.8L205.899 21.3C205.699 21.5 205.499 21.5 205.299 21.5Z" fill="white"/>
<path d="M176.938 102.287L162.379 107.888L167.979 122.447L182.539 116.847L176.938 102.287Z" fill="#F2F2F9"/>
<path d="M253.8 28.1H248.5V74H253.8V28.1Z" fill="#F2F2F9"/>
<path d="M192.699 28.9H170.199C169.799 28.9 169.399 28.6 169.399 28.1C169.399 27.6 169.699 27.3 170.199 27.3H192.699C193.099 27.3 193.499 27.6 193.499 28.1C193.499 28.6 193.099 28.9 192.699 28.9Z" fill="#030047"/>
<path d="M170.6 56.9L186.1 37L190.3 61.3L170.6 56.9Z" fill="white"/>
<path d="M179.1 65.8C179 65.8 179 65.8 178.9 65.8C178.5 65.7 178.2 65.3 178.3 64.9L180.7 54.3C180.8 53.9 181.2 53.6 181.6 53.7C182 53.8 182.3 54.2 182.2 54.6L179.8 65.2C179.7 65.6 179.4 65.8 179.1 65.8Z" fill="white"/>
<path d="M152.5 66.7C159.2 60 163.4 53 167.6 55.5C167.6 55.5 172.8 54.7 172.4 57.4C176 54.5 177.3 51 179.7 52.3C183.7 54.4 171.8 69.5 171.8 69.5H175.2C175.2 69.5 177.9 63.7 180.7 64.1C183.5 64.5 180.5 75.1 173.1 79.2C167.2 82.5 159.4 86.9 159.4 86.9L152.5 66.7Z" fill="#FFCC3E"/>
<path d="M152.5 66.7C147 72 138.5 81.8 130.4 85C120.3 89 102.5 67.2 89.9004 68.5L93.1003 90.4C93.1003 90.4 103.7 112.3 123.3 116.6C142.9 120.9 162.9 86.6 163 86.5C160.4 80.6 157.1 70.6 152.5 66.7Z" fill="#030047"/>
<path d="M171.6 57.3C170.2 58.6 169.1 60 168.1 61.7C167.8 62.3 168.6 62.8 169 62.2C169.9 60.6 171 59.2 172.3 58C172.8 57.6 172 56.9 171.6 57.3Z" fill="#FF3E6C"/>
<path d="M165.8 55.7C164.8 56.8 163.8 57.9 162.8 59C162.4 59.5 163.1 60.2 163.5 59.7C164.5 58.6 165.5 57.5 166.5 56.4C167 56 166.3 55.3 165.8 55.7Z" fill="#FF3E6C"/>
<path d="M81.1 66.4L79.5 70.7L98.3 72.8L99.2 64.1L81.1 66.4Z" fill="#030047"/>
<path d="M96.0004 71.2C85.4004 63 63.6004 77.2 60.1004 89.3C56.6004 101.4 52.4004 160.1 52.4004 160.1L116.7 159.2C116.7 159.2 111.5 95.8 104 85.1C96.5004 74.4 99.5004 74 96.0004 71.2Z" fill="#030047"/>
<path d="M110 105.4C109.7 105.4 109.3 105.2 109.3 104.8C109.3 104.7 108 98.8 105.3 89.6C105.2 89.2 105.4 88.8 105.8 88.7C106.2 88.6 106.6 88.8 106.7 89.2C109.5 98.5 110.7 104.4 110.7 104.5C110.8 104.9 110.5 105.3 110.1 105.4C110.1 105.4 110.1 105.4 110 105.4Z" fill="white"/>
<path d="M154.1 143.6H72.0996V176.4H154.1V143.6Z" fill="#8FACFF"/>
<path d="M129.399 152.8H96.6992V160.1H129.399V152.8Z" fill="#5F5FFF"/>
<path d="M141.3 152.8H134V160.1H141.3V152.8Z" fill="#5F5FFF"/>
<path d="M150.4 152.8H143.1V160.1H150.4V152.8Z" fill="#5F5FFF"/>
<path d="M141.3 162.7H134V170H141.3V162.7Z" fill="#5F5FFF"/>
<path d="M90.1994 162.7H82.8994V170H90.1994V162.7Z" fill="#5F5FFF"/>
<path d="M100.4 162.7H93.0996V170H100.4V162.7Z" fill="#5F5FFF"/>
<path d="M87.5993 63.7C85.6993 68.8 80.4993 69.5 76.9993 68C73.7993 66.6 73.1993 62.5 76.3993 59.7C77.4993 58.8 78.9993 58 81.0993 57.5C81.0993 57.5 82.6993 57.7 84.2993 58.4C86.4993 59.2 88.6993 60.9 87.5993 63.7Z" fill="#FFCC3E"/>
<path d="M101.899 47.8C105.199 55.1 105.599 63 95.9995 66.4C89.4995 68.7 81.4995 65.9 78.1995 58.6C74.8995 51.3 77.4994 43 84.0994 40C90.5994 37 98.5995 40.5 101.899 47.8Z" fill="#FFCC3E"/>
<path d="M92.55 53.1062C93.102 53.0899 93.5363 52.6291 93.52 52.077C93.5037 51.525 93.0429 51.0907 92.4908 51.107C91.9387 51.1234 91.5045 51.5841 91.5208 52.1362C91.5371 52.6883 91.9979 53.1226 92.55 53.1062Z" fill="#030047"/>
<path d="M100.9 52.9C99.6996 51 98.2995 49.3 96.5995 47.8C96.0995 47.4 95.3996 48.1 95.8996 48.5C97.4996 49.9 98.8995 51.6 100.1 53.4C100.4 54 101.2 53.5 100.9 52.9Z" fill="#030047"/>
<path d="M92.2995 41.9C90.0995 44.3 79.1995 49.7 83.2995 55.1C84.2995 56.5 85.4996 57 84.3996 58.4C83.0996 59.6 81.1996 57.5 81.1996 57.5C79.1996 58 77.5996 58.8 76.4996 59.7C71.1996 55.1 71.2996 49.9 73.6996 48C73.6996 48 87.6996 27.9 94.1996 33.2C99.8996 37.9 92.2995 41.9 92.2995 41.9Z" fill="#5F5FFF"/>
<path d="M83.3995 61.8C81.2995 60.8 78.6995 61.4 77.1995 63.2C76.7995 63.7 77.4995 64.4 77.8995 63.9C79.0995 62.4 81.0995 61.8 82.8995 62.7C83.4995 62.9 83.9995 62 83.3995 61.8Z" fill="#030047"/>
<path d="M106 135.8C105.1 132.7 91.9 123.6 91.2 120.5C86.9 122.9 82.7 124.4 78.9 123.1C68.4 119.5 64.5 100.3 76.6 90.8C88.7 81.3 89.8 68.4 89.8 68.4C70.7 69.2 52.3 80.7 43.8 103.9C34.2 130.3 46.7 143.7 56.6 148.4C66.4 153 94 151.3 94 151.3C94.3 151.8 96.7 147.6 97.2 147.2C99.9 143.7 107.3 140.2 106 135.8Z" fill="#030047"/>
<path d="M106 131.3C105.9 131.3 105.7 131.3 105.6 131.2C105.5 131.1 95.7001 125.2 74.0001 122.1C71.0001 121.7 68.8001 120.1 67.5001 117.6C65.0001 112.6 66.3001 104.3 71.0001 95.3C71.2001 94.9 71.6001 94.8 72.0001 95C72.4001 95.2 72.5001 95.6 72.3001 96C67.8001 104.4 66.5001 112.5 68.8001 117C69.9001 119.1 71.7001 120.4 74.2001 120.7C96.3001 123.9 106 129.7 106.4 130C106.8 130.2 106.9 130.7 106.6 131C106.5 131.2 106.3 131.3 106 131.3Z" fill="white"/>
<path d="M70.7001 151.7C70.6001 151.7 70.6001 151.7 70.7001 151.7C65.4001 151.3 60.5001 150.5 56.5001 149.2C56.1001 149.1 55.9001 148.6 56.0001 148.3C56.1001 147.9 56.6001 147.7 56.9001 147.8C60.8001 149.1 65.6001 149.9 70.7001 150.3C71.1001 150.3 71.4001 150.7 71.4001 151.1C71.4001 151.4 71.1001 151.7 70.7001 151.7Z" fill="white"/>
<path d="M107.1 132.8C101.8 136.7 99.0004 144.2 95.4004 150.1C96.2004 152 96.7004 152.1 101 152.7C108.8 153.7 108.6 159.1 112.5 159.1C116.4 159 116.5 156.9 116.5 156.9C121.2 156.9 122.6 153.5 122.6 153.5C133.6 149.4 114 133.1 107.1 132.8Z" fill="#FFCC3E"/>
<path d="M116.4 155.2C114.9 152.4 113 149.8 110.7 147.6C110.2 147.2 109.5 147.9 110 148.3C112.3 150.4 114.1 152.9 115.6 155.7C115.9 156.3 116.7 155.8 116.4 155.2Z" fill="#FF3E6C"/>
<path d="M122.5 152.2C121.4 148.2 119 145.5 115.9 142.9C115.4 142.5 114.7 143.2 115.2 143.6C118.1 146.1 120.4 148.7 121.5 152.5C121.8 153.1 122.7 152.8 122.5 152.2Z" fill="#FF3E6C"/>
</svg>
